<?xml version="1.0" encoding="UTF-8" standalone="no"?>
<!-- Created with Inkscape (http://www.inkscape.org/) -->

<svg
   width="128.76012mm"
   height="102.84553mm"
   viewBox="0 0 486.65242 388.70752"
   version="1.1"
   id="svg5"
   inkscape:version="1.2.2 (b0a8486541, 2022-12-01)"
   sodipodi:docname="v3-idv.svg"
   xml:space="preserve"
   xmlns:inkscape="http://www.inkscape.org/namespaces/inkscape"
   xmlns:sodipodi="http://sodipodi.sourceforge.net/DTD/sodipodi-0.dtd"
   xmlns:xlink="http://www.w3.org/1999/xlink"
   xmlns="http://www.w3.org/2000/svg"
   xmlns:svg="http://www.w3.org/2000/svg"><sodipodi:namedview
     id="namedview7"
     pagecolor="#ffffff"
     bordercolor="#000000"
     borderopacity="0.25"
     inkscape:showpageshadow="2"
     inkscape:pageopacity="0.0"
     inkscape:pagecheckerboard="0"
     inkscape:deskcolor="#d1d1d1"
     inkscape:document-units="mm"
     showgrid="false"
     showguides="true"
     inkscape:zoom="0.34967763"
     inkscape:cx="1821.6779"
     inkscape:cy="396.07909"
     inkscape:window-width="1920"
     inkscape:window-height="1043"
     inkscape:window-x="0"
     inkscape:window-y="0"
     inkscape:window-maximized="1"
     inkscape:current-layer="layer1" /><defs
     id="defs2"><linearGradient
       inkscape:collect="always"
       id="linearGradient7894"><stop
         style="stop-color:#22577a;stop-opacity:1;"
         offset="0.31664443"
         id="stop7890" /><stop
         style="stop-color:#38a3a5;stop-opacity:1;"
         offset="0.54632717"
         id="stop11164" /><stop
         style="stop-color:#57cc99;stop-opacity:1;"
         offset="1"
         id="stop7892" /></linearGradient><linearGradient
       inkscape:collect="always"
       xlink:href="#linearGradient7894"
       id="linearGradient21969"
       gradientUnits="userSpaceOnUse"
       gradientTransform="matrix(0.79889262,0,0,0.79889262,357.29972,-696.19519)"
       x1="-394.27499"
       y1="1345.5977"
       x2="166.88362"
       y2="1490.48" /></defs><g
     inkscape:label="Layer 1"
     inkscape:groupmode="layer"
     id="layer1"
     transform="translate(-57.888717,-194.8205)"><path
       id="path7739-3-5-4"
       style="fill:url(#linearGradient21969);fill-opacity:1;stroke:none;stroke-width:6.03888;stroke-dasharray:none"
       d="m 285.54302,194.82102 -2.8379,7.39062 -2.8398,7.38868 -10.9024,28.36132 -10.9023,28.36133 -0.4082,0.99805 -0.4063,0.99805 h 80.3731 80.375 v 0.40429 0.40235 l -9.3359,11.78125 -9.336,11.77929 -23.8183,29.76563 -23.8184,29.76363 v 20.2989 20.3008 l 30.1582,0.3222 30.1582,0.3223 7.5899,2.0527 7.5898,2.0528 4.6895,2.0839 4.6914,2.084 5.0097,3.5742 5.0098,3.5762 4.5391,5.0137 4.539,5.0137 3.1426,6.3906 3.1445,6.3926 1.541,5.9902 1.543,5.9922 -0.209,9.1875 -0.209,9.1875 -2.2714,6.6719 -2.2715,6.6738 -3.1543,4.8789 -3.1543,4.8809 -5.1348,4.8886 -5.1348,4.8887 -6.3144,3.3633 -6.3145,3.3652 -5.7226,1.9453 -5.7207,1.9453 -6.9043,0.9219 -6.9043,0.9199 -8.1856,-0.5273 -8.1855,-0.5274 -6.8242,-1.9785 -6.8242,-1.9765 -5.4532,-2.7461 -5.4531,-2.7481 -5.9336,-4.7148 -5.9336,-4.7149 -3.6387,-4.3164 -3.6386,-4.3164 -3.3809,-5.041 -3.3789,-5.041 -2.875,-6.1426 -2.873,-6.1445 -0.2227,-0.2949 -0.2227,-0.295 -7.0273,4.375 -7.0293,4.377 -8.3867,5.1894 -8.3887,5.1875 -17.1758,10.5938 -17.1777,10.5957 -0.9883,0.9238 -0.9883,0.9258 2.2618,4.7754 2.2617,4.7754 5.2988,8.6484 5.2988,8.6485 5.1133,6.5293 5.1152,6.53119 6.6915,6.791 6.6894,6.791 7.9863,5.2833 7.9864,5.2832 5.8535,3.375 5.8535,3.3769 4.4062,1.9473 4.4063,1.9492 9.0625,3.125 9.0625,3.125 9.8379,2.0195 9.8379,2.0176 4.0742,0.498 h 37.4805 l 8.0937,-1.6425 10.2676,-2.0821 6.791,-2.0371 6.791,-2.0371 7.9883,-3.1797 7.9902,-3.1777 7.1895,-3.707 7.1894,-3.7051 6.5762,-4.9531 6.5742,-4.9532 3.8106,-3.4492 3.8105,-3.4492 4.2774,-4.3984 4.2773,-4.4004 6.6738,-8.88089 6.6758,-8.8808 4.375,-8.295 4.377,-8.2949 1.5957,-4.3945 1.5976,-4.3946 2.4297,-7.9882 2.4317,-7.9883 1.3769,-7.5899 1.377,-7.5898 -0.061,-13.582 -0.061,-13.5801 -1.6524,-9.1875 -1.6543,-9.1875 -2.4804,-7.5899 -2.4824,-7.5898 -4.0079,-7.9199 -4.0058,-7.9219 -2.4903,-3.6621 -2.4902,-3.6641 -4.6211,-5.6972 -4.6211,-5.6973 -5.4199,-4.9668 -5.418,-4.9688 -6.4043,-4.2636 -6.4062,-4.2637 -5.5781,-2.5332 -5.5782,-2.5352 -5.5078,-1.9003 -5.5078,-1.9024 -4.8769,-1.1894 -4.879,-1.1895 -5.1933,-0.8105 -5.1914,-0.8106 -0.6289,-0.01 -0.6309,-0.01 13.7774,-15.37893 13.7754,-15.3789 0.4804,-0.39844 0.4785,-0.40039 22.5489,-25.33399 22.5507,-25.33203 0.7735,-0.47851 0.7715,-0.47852 V 223.53341 194.82052 H 403.69642 Z M 57.888718,309.86204 v 0.4082 0.4082 l 10.4785,22.55857 10.4786,22.5606 10.3906,22.3691 10.3906,22.3692 1.783202,3.9961 1.7852,3.9941 16.8007,35.9492 16.8028,35.9512 12.0215,25.9629 12.0234,25.9648 16.3984,35.15039 7.4746,16.0234 h 31.625 l 1.2891,-3.041 9.9004,-23.3672 2.6895,-6.3906 2.6894,-6.3926 4.7012,-11.5839 4.7031,-11.58399 5.9609,-13.5801 5.961,-13.582 3.3789,-7.5879 3.3769,-7.5899 15.9825,-37.1484 15.9824,-37.1484 3.3945,-7.9903 3.3945,-7.9883 3.793,-8.7871 3.793,-8.789 3.0019,-7.1895 3.0039,-7.1894 8.9864,-20.7715 8.9883,-20.77151 1.1074,-2.59571 1.1094,-2.59765 h -42.3418 -42.3418 l -1.2715,2.99609 -1.2735,2.99609 -6.6386,16.37699 -6.6387,16.3769 -15.3106,37.5488 -15.3125,37.5469 -2.5097,6.1914 -2.5098,6.1914 h -0.4453 -0.4453 l -4.7422,-10.9843 -4.7422,-10.9844 -19.4902,-44.3379 -19.4903,-44.33985 -3.3261,-7.77734 -3.3262,-7.7793 -41.742202,-0.0117 z"
       inkscape:export-filename="v3/logo-bg-transparente.png"
       inkscape:export-xdpi="96"
       inkscape:export-ydpi="96" /></g></svg>
